<?xml version="1.0" encoding="utf-8"?>
<!-- Generator: Adobe Illustrator 17.1.0, SVG Export Plug-In . SVG Version: 6.00 Build 0)  -->
<!DOCTYPE svg PUBLIC "-//W3C//DTD SVG 1.1//EN" "http://www.w3.org/Graphics/SVG/1.1/DTD/svg11.dtd">
<svg version="1.1" id="Layer_1" xmlns="http://www.w3.org/2000/svg" xmlns:xlink="http://www.w3.org/1999/xlink" x="0px" y="0px"
	 viewBox="0 0 45 45" enable-background="new 0 0 45 45" xml:space="preserve">
<g id="five">
	<path fill="#FBC112" d="M14.757,2.288l-0.896-0.13L13.46,1.346l-0.401,0.812l-0.896,0.13l0.649,0.632l-0.153,0.893l0.802-0.421
		l0.802,0.421l-0.153-0.893C14.108,2.921,14.757,2.288,14.757,2.288z"/>
	<path fill="#FBC112" d="M17.527,2.288l-0.896-0.13L16.23,1.346l-0.401,0.812l-0.896,0.13l0.649,0.632l-0.153,0.893l0.802-0.421
		l0.802,0.421l-0.153-0.893L17.527,2.288z"/>
	<path fill="#FBC112" d="M20.297,2.288L19.4,2.158L19,1.346l-0.401,0.812l-0.896,0.13l0.649,0.632l-0.153,0.893L19,3.392
		l0.802,0.421l-0.153-0.893C19.648,2.921,20.297,2.288,20.297,2.288z"/>
	<path fill="#FBC112" d="M23.067,2.288l-0.896-0.13L21.77,1.346l-0.401,0.812l-0.896,0.13l0.649,0.632l-0.153,0.893l0.802-0.421
		l0.802,0.421l-0.153-0.893C22.418,2.921,23.067,2.288,23.067,2.288z"/>
	<path fill="#FBC112" d="M25.837,2.288l-0.896-0.13l-0.401-0.812l-0.401,0.812l-0.896,0.13l0.649,0.632l-0.153,0.893l0.802-0.421
		l0.802,0.421l-0.153-0.893C25.188,2.921,25.837,2.288,25.837,2.288z"/>
</g>
<g id="fourhalf">
	<path fill="#FBC112" d="M14.757,5.404l-0.896-0.13L13.46,4.462l-0.401,0.812l-0.896,0.13l0.649,0.632l-0.153,0.893l0.802-0.421
		l0.802,0.421l-0.153-0.893C14.108,6.037,14.757,5.404,14.757,5.404z"/>
	<path fill="#FBC112" d="M17.527,5.404l-0.896-0.13L16.23,4.462l-0.401,0.812l-0.896,0.13l0.649,0.632l-0.153,0.893l0.802-0.421
		l0.802,0.421l-0.153-0.893C16.878,6.037,17.527,5.404,17.527,5.404z"/>
	<path fill="#FBC112" d="M20.297,5.404L19.4,5.274L19,4.462l-0.401,0.812l-0.896,0.13l0.649,0.632l-0.153,0.893L19,6.508
		l0.802,0.421l-0.153-0.893C19.648,6.037,20.297,5.404,20.297,5.404z"/>
	<path fill="#FBC112" d="M23.067,5.404l-0.896-0.13L21.77,4.462l-0.401,0.812l-0.896,0.13l0.649,0.632l-0.153,0.893l0.802-0.421
		l0.802,0.421l-0.153-0.893C22.418,6.037,23.067,5.404,23.067,5.404z"/>
	<g>
		<path fill="#787878" d="M24.592,6.529l0.802,0.421l-0.153-0.893l0.649-0.632l-0.896-0.13l-0.401-0.812 M24.592,4.885l0.283,0.574
			l0.633,0.092L25.05,5.997l0.108,0.63l-0.566-0.298l0,0"/>
		<polyline fill="#FBC112" points="24.59,4.478 24.189,5.29 23.293,5.42 23.941,6.053 23.788,6.945 24.59,6.524 		"/>
	</g>
</g>
<g id="four">
	<path fill="#FBC112" d="M20.402,11.718l-0.896-0.13l-0.401-0.812l-0.401,0.812l-0.896,0.13l0.649,0.632l-0.153,0.893l0.802-0.421
		l0.802,0.421l-0.153-0.893C19.753,12.35,20.402,11.718,20.402,11.718z"/>
	<path fill="#FBC112" d="M14.785,11.7l-0.896-0.13l-0.401-0.812l-0.401,0.812l-0.896,0.13l0.649,0.632l-0.153,0.893l0.802-0.421
		l0.802,0.421l-0.153-0.893C14.137,12.332,14.785,11.7,14.785,11.7z"/>
	<path fill="#FBC112" d="M17.555,11.7l-0.896-0.13l-0.401-0.812l-0.401,0.812l-0.896,0.13l0.649,0.632l-0.153,0.893l0.802-0.421
		l0.802,0.421l-0.153-0.893C16.906,12.332,17.555,11.7,17.555,11.7z"/>
	<g>
		<path fill="#787878" d="M21.809,12.825l0.802,0.421l-0.153-0.893l0.649-0.632l-0.896-0.13l-0.401-0.812 M21.809,11.18l0.283,0.574
			l0.633,0.092l-0.458,0.446l0.108,0.63l-0.566-0.298l0,0"/>
		<polyline fill="#FBC112" points="21.807,10.773 21.406,11.585 20.51,11.716 21.158,12.348 21.005,13.241 21.807,12.819 		"/>
	</g>
</g>
<g id="threehalf">
	<path fill="#FBC112" d="M14.842,20.704l-0.896-0.13l-0.401-0.812l-0.401,0.812l-0.896,0.13l0.649,0.632l-0.153,0.893l0.802-0.421
		l0.802,0.421l-0.153-0.893C14.193,21.336,14.842,20.704,14.842,20.704z"/>
	<path fill="#FBC112" d="M17.612,20.704l-0.896-0.13l-0.401-0.812l-0.401,0.812l-0.896,0.13l0.649,0.632l-0.153,0.893l0.802-0.421
		l0.802,0.421l-0.154-0.893L17.612,20.704z"/>
</g>
<g id="three">
	<path fill="#FBC112" d="M14.732,14.614l-0.896-0.13l-0.401-0.812l-0.401,0.812l-0.896,0.13l0.649,0.632l-0.153,0.893l0.802-0.421
		l0.802,0.421l-0.153-0.893C14.084,15.247,14.732,14.614,14.732,14.614z"/>
	<path fill="#FBC112" d="M17.502,14.614l-0.896-0.13l-0.401-0.812l-0.401,0.812l-0.896,0.13l0.649,0.632l-0.153,0.893l0.802-0.421
		l0.802,0.421l-0.153-0.893C16.854,15.247,17.502,14.614,17.502,14.614z"/>
	<path fill="#FBC112" d="M20.272,14.614l-0.896-0.13l-0.401-0.812l-0.401,0.812l-0.896,0.13l0.649,0.632l-0.153,0.893l0.802-0.421
		l0.802,0.421l-0.153-0.893C19.624,15.247,20.272,14.614,20.272,14.614z"/>
</g>
<g id="twohalf">
	<path fill="#FBC112" d="M14.757,17.55l-0.896-0.13l-0.401-0.812l-0.401,0.812l-0.897,0.13l0.649,0.632l-0.153,0.893l0.802-0.421
		l0.802,0.421l-0.153-0.893C14.108,18.182,14.757,17.55,14.757,17.55z"/>
	<g>
		<path fill="#787878" d="M19.206,18.675l0.802,0.421l-0.153-0.893l0.649-0.632l-0.896-0.13l-0.401-0.812 M19.206,17.03l0.283,0.574
			l0.633,0.092l-0.458,0.446l0.108,0.63l-0.566-0.298l0,0"/>
		<polyline fill="#FBC112" points="19.204,16.623 18.803,17.435 17.907,17.566 18.555,18.198 18.402,19.091 19.204,18.669 		"/>
	</g>
	<path fill="#FBC112" d="M17.604,17.62l-0.896-0.13l-0.401-0.812l-0.401,0.812l-0.896,0.13l0.649,0.632l-0.153,0.893l0.802-0.421
		l0.802,0.421l-0.153-0.893C16.955,18.252,17.604,17.62,17.604,17.62z"/>
</g>
<g id="two">
	<path fill="#FBC112" d="M14.688,26.574l-0.896-0.13l-0.401-0.812l-0.401,0.812l-0.896,0.13l0.649,0.632l-0.153,0.893l0.802-0.421
		l0.802,0.421l-0.153-0.893C14.039,27.206,14.688,26.574,14.688,26.574z"/>
</g>
<g id="onehalf">
	<path fill="#FBC112" d="M14.688,23.601l-0.896-0.13l-0.401-0.812l-0.401,0.812l-0.896,0.13l0.649,0.632l-0.153,0.893l0.802-0.421
		l0.802,0.421l-0.153-0.893C14.039,24.234,14.688,23.601,14.688,23.601z"/>
	<g>
		<path fill="#787878" d="M16.233,24.717l0.802,0.421l-0.153-0.893l0.649-0.632l-0.896-0.13l-0.401-0.812 M16.234,23.072
			l0.283,0.574l0.633,0.092l-0.458,0.446l0.108,0.63l-0.566-0.298l0,0"/>
		<polyline fill="#FBC112" points="16.231,22.666 15.831,23.478 14.934,23.608 15.583,24.241 15.43,25.133 16.231,24.712 		"/>
	</g>
</g>
<g id="one">
	<path fill="#FBC112" d="M14.785,8.605l-0.896-0.13l-0.401-0.812l-0.401,0.812l-0.896,0.13l0.649,0.632l-0.153,0.893l0.802-0.421
		l0.802,0.421l-0.153-0.893C14.137,9.237,14.785,8.605,14.785,8.605z"/>
	<path fill="#FBC112" d="M20.325,8.605l-0.896-0.13l-0.401-0.812l-0.401,0.812l-0.896,0.13l0.649,0.632l-0.153,0.893l0.802-0.421
		l0.802,0.421l-0.153-0.893C19.676,9.237,20.325,8.605,20.325,8.605z"/>
	<path fill="#FBC112" d="M23.095,8.605l-0.896-0.13l-0.401-0.812l-0.401,0.812l-0.896,0.13l0.649,0.632l-0.153,0.893l0.802-0.421
		L22.6,10.13l-0.153-0.893C22.446,9.237,23.095,8.605,23.095,8.605z"/>
	<path fill="#FBC112" d="M17.575,8.621l-0.896-0.13l-0.401-0.812L15.878,8.49l-0.896,0.13l0.649,0.632l-0.153,0.893l0.802-0.421
		l0.802,0.421l-0.153-0.893C16.927,9.253,17.575,8.621,17.575,8.621z"/>
</g>
</svg>
