<?xml version="1.0" encoding="utf-8"?>
<!-- Generator: Adobe Illustrator 17.1.0, SVG Export Plug-In . SVG Version: 6.00 Build 0)  -->
<!DOCTYPE svg PUBLIC "-//W3C//DTD SVG 1.1//EN" "http://www.w3.org/Graphics/SVG/1.1/DTD/svg11.dtd">





<svg version="1.1" id="Layer_1" xmlns="http://www.w3.org/2000/svg" xmlns:xlink="http://www.w3.org/1999/xlink" x="0px" y="0px"
	 viewBox="0 0 100 191" enable-background="new 0 0 100 191" xml:space="preserve">
    
    <defs>
    <style><![CDATA[
        .sprite { display: none; }
        .sprite:target { display: inline; }
    ]]></style>
</defs>
    
<g clas="sprite" id="five">
	<path fill="#FBC112" d="M17.135,9.713L13.33,9.16l-1.701-3.447L9.928,9.16L6.123,9.713l2.753,2.683l-0.65,3.789l3.403-1.789
		l3.403,1.789l-0.65-3.789C14.382,12.396,17.135,9.713,17.135,9.713z"/>
	<path fill="#FBC112" d="M28.892,9.713L25.087,9.16l-1.701-3.447L21.684,9.16L17.88,9.713l2.753,2.683l-0.65,3.789l3.403-1.789
		l3.403,1.789l-0.65-3.789C26.139,12.396,28.892,9.713,28.892,9.713z"/>
	<path fill="#FBC112" d="M40.648,9.713L36.844,9.16l-1.701-3.447L33.441,9.16l-3.804,0.553l2.753,2.683l-0.65,3.789l3.403-1.789
		l3.403,1.789l-0.65-3.789C37.895,12.396,40.648,9.713,40.648,9.713z"/>
	<path fill="#FBC112" d="M52.405,9.713L48.601,9.16l-1.701-3.447L45.198,9.16l-3.804,0.553l2.753,2.683l-0.65,3.789l3.403-1.789
		l3.403,1.789l-0.65-3.789C49.652,12.396,52.405,9.713,52.405,9.713z"/>
	<path fill="#FBC112" d="M64.162,9.713L60.357,9.16l-1.701-3.447L56.955,9.16L53.15,9.713l2.753,2.683l-0.65,3.789l3.403-1.789
		l3.403,1.789l-0.65-3.789C61.409,12.396,64.162,9.713,64.162,9.713z"/>
</g>
    
<g clas="sprite" id="fourhalf">
	<path fill="#FBC112" d="M17.135,22.939l-3.804-0.553l-1.701-3.447l-1.701,3.447l-3.804,0.553l2.753,2.683l-0.65,3.789l3.403-1.789
		l3.403,1.789l-0.65-3.789C14.382,25.622,17.135,22.939,17.135,22.939z"/>
	<path fill="#FBC112" d="M28.892,22.939l-3.804-0.553l-1.701-3.447l-1.701,3.447l-3.804,0.553l2.753,2.683l-0.65,3.789l3.403-1.789
		l3.403,1.789l-0.65-3.789C26.139,25.622,28.892,22.939,28.892,22.939z"/>
	<path fill="#FBC112" d="M40.648,22.939l-3.804-0.553l-1.701-3.447l-1.701,3.447l-3.804,0.553l2.753,2.683l-0.65,3.789l3.403-1.789
		l3.403,1.789l-0.65-3.789C37.895,25.622,40.648,22.939,40.648,22.939z"/>
	<path fill="#FBC112" d="M52.405,22.939l-3.804-0.553l-1.701-3.447l-1.701,3.447l-3.804,0.553l2.753,2.683l-0.65,3.789l3.403-1.789
		l3.403,1.789l-0.65-3.789C49.652,25.622,52.405,22.939,52.405,22.939z"/>
	<g>
		<path fill="#787878" d="M58.879,27.714l3.403,1.789l-0.65-3.789c0,0,2.753-2.683,2.753-2.683l-3.804-0.553l-1.701-3.447
			 M58.88,20.732l1.202,2.435l2.686,0.39l-1.944,1.895l0.459,2.676l-2.403-1.263h0"/>
		<polyline fill="#FBC112" points="58.87,19.007 57.169,22.454 53.365,23.007 56.118,25.69 55.468,29.479 58.87,27.69 		"/>
	</g>
</g>
    
<g clas="sprite" id="four">
	<path fill="#FBC112" d="M41.094,49.735l-3.804-0.553l-1.701-3.447l-1.701,3.447l-3.804,0.553l2.753,2.683l-0.65,3.789l3.403-1.789
		l3.403,1.789l-0.65-3.789C38.342,52.418,41.094,49.735,41.094,49.735z"/>
	<path fill="#FBC112" d="M17.255,49.659l-3.804-0.553l-1.701-3.447l-1.701,3.447l-3.804,0.553l2.753,2.683l-0.65,3.789l3.403-1.789
		l3.403,1.789l-0.65-3.789C14.502,52.342,17.255,49.659,17.255,49.659z"/>
	<path fill="#FBC112" d="M29.011,49.659l-3.804-0.553l-1.701-3.447l-1.701,3.447L18,49.659l2.753,2.683l-0.65,3.789l3.403-1.789
		l3.403,1.789l-0.65-3.789C26.258,52.342,29.011,49.659,29.011,49.659z"/>
	<g>
		<path fill="#787878" d="M47.068,54.434l3.403,1.789l-0.65-3.789c0,0,2.753-2.683,2.753-2.683l-3.804-0.553l-1.701-3.447
			 M47.068,47.452l1.202,2.435l2.686,0.39l-1.944,1.895l0.459,2.676l-2.403-1.263h0"/>
		<polyline fill="#FBC112" points="47.059,45.726 45.358,49.174 41.553,49.727 44.306,52.41 43.656,56.199 47.059,54.41 		"/>
	</g>
	<path fill="#787878" d="M64.293,49.414l-3.804-0.553l-1.701-3.447l-1.701,3.447l-3.804,0.553l2.753,2.683l-0.65,3.789l3.403-1.789
		l3.403,1.789l-0.65-3.789C61.54,52.097,64.293,49.414,64.293,49.414z M58.787,53.247l-2.403,1.263l0.459-2.676l-1.944-1.895
		l2.687-0.39l1.202-2.435l1.202,2.435l2.686,0.39l-1.944,1.895l0.459,2.676L58.787,53.247L58.787,53.247z"/>
</g>
    
<g clas="sprite" id="threehalf">
	<path fill="#FBC112" d="M17.496,87.877l-3.804-0.553l-1.701-3.447l-1.701,3.447l-3.804,0.553l2.753,2.683l-0.65,3.789l3.403-1.789
		l3.403,1.789l-0.65-3.789C14.743,90.56,17.496,87.877,17.496,87.877z"/>
	<path fill="#FBC112" d="M29.253,87.877l-3.804-0.553l-1.701-3.447l-1.701,3.447l-3.804,0.553l2.753,2.683l-0.65,3.789l3.403-1.789
		l3.403,1.789L26.5,90.56C26.5,90.56,29.253,87.877,29.253,87.877z"/>
	<path fill="#787878" d="M41.201,88.088l-3.804-0.553l-1.701-3.447l-1.701,3.447l-3.804,0.553l2.753,2.683l-0.65,3.789l3.403-1.789
		l3.403,1.789l-0.65-3.789C38.448,90.771,41.201,88.088,41.201,88.088z M35.696,91.921l-2.403,1.263l0.459-2.676l-1.944-1.895
		l2.687-0.39l1.202-2.435l1.202,2.435l2.686,0.39l-1.944,1.895l0.459,2.676L35.696,91.921L35.696,91.921z"/>
	<path fill="#787878" d="M53.071,88.22l-3.804-0.553l-1.701-3.447l-1.701,3.447L42.06,88.22l2.753,2.683l-0.65,3.789l3.403-1.789
		l3.403,1.789l-0.65-3.789C50.318,90.903,53.071,88.22,53.071,88.22z M47.566,92.053l-2.403,1.263l0.459-2.676l-1.944-1.895
		l2.687-0.39l1.202-2.435l1.202,2.435l2.686,0.39L49.51,90.64l0.459,2.676L47.566,92.053L47.566,92.053z"/>
	<path fill="#787878" d="M64.828,87.926l-3.804-0.553l-1.701-3.447l-1.701,3.447l-3.804,0.553l2.753,2.683l-0.65,3.789l3.403-1.789
		l3.403,1.789l-0.65-3.789C62.075,90.609,64.828,87.926,64.828,87.926z M59.322,91.759l-2.403,1.263l0.459-2.676l-1.944-1.895
		l2.687-0.39l1.202-2.435l1.202,2.435l2.686,0.39l-1.944,1.895l0.459,2.676L59.322,91.759L59.322,91.759z"/>
</g>
    
<g clas="sprite" id="three">
	<path fill="#FBC112" d="M17.031,62.03l-3.804-0.553l-1.701-3.447l-1.701,3.447L6.02,62.03l2.753,2.683l-0.65,3.789l3.403-1.789
		l3.403,1.789l-0.65-3.789C14.278,64.714,17.031,62.03,17.031,62.03z"/>
	<path fill="#FBC112" d="M28.788,62.03l-3.804-0.553l-1.701-3.447l-1.701,3.447l-3.804,0.553l2.753,2.683l-0.65,3.789l3.403-1.789
		l3.403,1.789l-0.65-3.789C26.035,64.714,28.788,62.03,28.788,62.03z"/>
	<path fill="#FBC112" d="M40.545,62.03l-3.804-0.553l-1.701-3.447l-1.701,3.447l-3.804,0.553l2.753,2.683l-0.65,3.789l3.403-1.789
		l3.403,1.789l-0.65-3.789C37.792,64.714,40.545,62.03,40.545,62.03z"/>
	<path fill="#787878" d="M52.2,61.948l-3.804-0.553l-1.701-3.447l-1.701,3.447l-3.804,0.553l2.753,2.683l-0.65,3.789l3.403-1.789
		l3.403,1.789l-0.65-3.789C49.447,64.631,52.2,61.948,52.2,61.948z M46.694,65.781l-2.403,1.263l0.459-2.676l-1.944-1.895
		l2.687-0.39l1.202-2.435l1.202,2.435l2.686,0.39l-1.944,1.895l0.459,2.676L46.694,65.781L46.694,65.781z"/>
	<path fill="#787878" d="M63.905,61.982l-3.804-0.553L58.4,57.982l-1.701,3.447l-3.804,0.553l2.753,2.683l-0.65,3.789l3.403-1.789
		l3.403,1.789l-0.65-3.789C61.153,64.665,63.905,61.982,63.905,61.982z M58.4,65.815l-2.403,1.263l0.459-2.676l-1.944-1.895
		l2.687-0.39l1.202-2.435l1.202,2.435l2.686,0.39l-1.944,1.895l0.459,2.676L58.4,65.815L58.4,65.815z"/>
</g>
    
<g clas="sprite" id="twohalf">
	<path fill="#FBC112" d="M17.135,74.49l-3.804-0.553l-1.701-3.447l-1.701,3.447L6.123,74.49l2.753,2.683l-0.65,3.789l3.403-1.789
		l3.403,1.789l-0.65-3.789C14.382,77.173,17.135,74.49,17.135,74.49z"/>
	<g>
		<path fill="#787878" d="M36.019,79.265l3.403,1.789l-0.65-3.789c0,0,2.753-2.683,2.753-2.683l-3.804-0.553l-1.701-3.447
			 M36.019,72.282l1.202,2.435l2.686,0.39l-1.944,1.895l0.459,2.676l-2.403-1.263h0"/>
		<polyline fill="#FBC112" points="36.01,70.557 34.309,74.004 30.504,74.557 33.257,77.241 32.607,81.03 36.01,79.241 		"/>
	</g>
	<path fill="#787878" d="M52.71,74.538l-3.804-0.553l-1.701-3.447l-1.701,3.447l-3.804,0.553l2.753,2.683l-0.65,3.789l3.403-1.789
		l3.403,1.789l-0.65-3.789C49.957,77.222,52.71,74.538,52.71,74.538z M47.204,78.371l-2.403,1.263l0.459-2.676l-1.944-1.895
		l2.687-0.39l1.202-2.435l1.202,2.435l2.686,0.39l-1.944,1.895l0.459,2.676L47.204,78.371L47.204,78.371z"/>
	<path fill="#787878" d="M64.467,74.244l-3.804-0.553l-1.701-3.447l-1.701,3.447l-3.804,0.553l2.753,2.683l-0.65,3.789l3.403-1.789
		l3.403,1.789l-0.65-3.789C61.714,76.928,64.467,74.244,64.467,74.244z M58.961,78.077l-2.403,1.263l0.459-2.676l-1.944-1.895
		l2.687-0.39l1.202-2.435l1.202,2.435l2.686,0.39l-1.944,1.895l0.459,2.676L58.961,78.077L58.961,78.077z"/>
	<path fill="#FBC112" d="M29.218,74.788l-3.804-0.553l-1.701-3.447l-1.701,3.447l-3.804,0.553l2.753,2.683l-0.65,3.789l3.403-1.789
		l3.403,1.789l-0.65-3.789C26.465,77.471,29.218,74.788,29.218,74.788z"/>
</g>
    
<g clas="sprite" id="two">
	<path fill="#FBC112" d="M16.841,112.791l-3.804-0.553l-1.701-3.447l-1.701,3.447l-3.804,0.553l2.753,2.683l-0.65,3.789l3.403-1.789
		l3.403,1.789l-0.65-3.789C14.088,115.475,16.841,112.791,16.841,112.791z"/>
	<path fill="#787878" d="M40.546,112.709l-3.804-0.553l-1.701-3.447l-1.701,3.447l-3.804,0.553l2.753,2.683l-0.65,3.789l3.403-1.789
		l3.403,1.789l-0.65-3.789C37.793,115.392,40.546,112.709,40.546,112.709z M35.041,116.542l-2.403,1.263l0.459-2.676l-1.944-1.895
		l2.687-0.39l1.202-2.435l1.202,2.435l2.686,0.39l-1.944,1.895l0.459,2.676L35.041,116.542L35.041,116.542z"/>
	<path fill="#787878" d="M64.173,112.546l-3.804-0.553l-1.701-3.447l-1.701,3.447l-3.804,0.553l2.753,2.683l-0.65,3.789l3.403-1.789
		l3.403,1.789l-0.65-3.789C61.42,115.229,64.173,112.546,64.173,112.546z M58.667,116.379l-2.403,1.263l0.459-2.676l-1.944-1.895
		l2.687-0.39l1.202-2.435l1.202,2.435l2.686,0.39l-1.944,1.895l0.459,2.676L58.667,116.379L58.667,116.379z"/>
	<path fill="#787878" d="M28.903,112.84l-3.804-0.553l-1.701-3.447l-1.701,3.447l-3.804,0.553l2.753,2.683l-0.65,3.789l3.403-1.789
		l3.403,1.789l-0.65-3.789C26.15,115.523,28.903,112.84,28.903,112.84z M23.397,116.673l-2.403,1.263l0.459-2.676l-1.944-1.895
		l2.687-0.39l1.202-2.435l1.202,2.435l2.686,0.39l-1.944,1.895l0.459,2.676L23.397,116.673L23.397,116.673z"/>
	<path fill="#787878" d="M52.432,112.972l-3.804-0.553l-1.701-3.447l-1.701,3.447l-3.804,0.553l2.753,2.683l-0.65,3.789l3.403-1.789
		l3.403,1.789l-0.65-3.789C49.679,115.655,52.432,112.972,52.432,112.972z M46.926,116.805l-2.403,1.263l0.459-2.676l-1.944-1.895
		l2.687-0.39l1.202-2.435l1.202,2.435l2.686,0.39l-1.944,1.895l0.459,2.676L46.926,116.805L46.926,116.805z"/>
</g>
<g clas="sprite" id="onehalf">
	<path fill="#FBC112" d="M16.841,100.175l-3.804-0.553l-1.701-3.447l-1.701,3.447l-3.804,0.553l2.753,2.683l-0.65,3.789l3.403-1.789
		l3.403,1.789l-0.65-3.789C14.088,102.858,16.841,100.175,16.841,100.175z"/>
	<path fill="#787878" d="M40.546,100.092l-3.804-0.553l-1.701-3.447l-1.701,3.447l-3.804,0.553l2.753,2.683l-0.65,3.789l3.403-1.789
		l3.403,1.789l-0.65-3.789C37.793,102.775,40.546,100.092,40.546,100.092z M35.041,103.925l-2.403,1.263l0.459-2.676l-1.944-1.895
		l2.687-0.39l1.202-2.435l1.202,2.435l2.686,0.39l-1.944,1.895l0.459,2.676L35.041,103.925L35.041,103.925z"/>
	<path fill="#787878" d="M64.173,99.93l-3.804-0.553l-1.701-3.447l-1.701,3.447l-3.804,0.553l2.753,2.683l-0.65,3.789l3.403-1.789
		l3.403,1.789l-0.65-3.789C61.42,102.613,64.173,99.93,64.173,99.93z M58.667,103.763l-2.403,1.263l0.459-2.676l-1.944-1.895
		l2.687-0.39l1.202-2.435l1.202,2.435l2.686,0.39l-1.944,1.895l0.459,2.676L58.667,103.763L58.667,103.763z"/>
	<path fill="#787878" d="M52.432,100.355l-3.804-0.553l-1.701-3.447l-1.701,3.447l-3.804,0.553l2.753,2.683l-0.65,3.789l3.403-1.789
		l3.403,1.789l-0.65-3.789C49.679,103.039,52.432,100.355,52.432,100.355z M46.926,104.188l-2.403,1.263l0.459-2.676l-1.944-1.895
		l2.687-0.39l1.202-2.435l1.202,2.435l2.686,0.39l-1.944,1.895l0.459,2.676L46.926,104.188L46.926,104.188z"/>
	<g>
		<path fill="#787878" d="M23.402,104.912l3.403,1.789l-0.65-3.789c0,0,2.753-2.683,2.753-2.683l-3.804-0.553l-1.701-3.447
			 M23.403,97.929l1.202,2.435l2.686,0.39l-1.944,1.895l0.459,2.676l-2.403-1.263l0,0"/>
		<polyline fill="#FBC112" points="23.393,96.204 21.692,99.651 17.888,100.204 20.64,102.888 19.99,106.677 23.393,104.888 		"/>
	</g>
</g>
    
<g clas="sprite" id="one">
	<path fill="#FBC112" d="M17.255,36.525l-3.804-0.553l-1.701-3.447l-1.701,3.447l-3.804,0.553l2.753,2.683l-0.65,3.789l3.403-1.789
		l3.403,1.789l-0.65-3.789C14.502,39.208,17.255,36.525,17.255,36.525z"/>
	<path fill="#FBC112" d="M40.768,36.525l-3.804-0.553l-1.701-3.447l-1.701,3.447l-3.804,0.553l2.753,2.683l-0.65,3.789l3.403-1.789
		l3.403,1.789l-0.65-3.789C38.015,39.208,40.768,36.525,40.768,36.525z"/>
	<path fill="#FBC112" d="M52.525,36.525l-3.804-0.553l-1.701-3.447l-1.701,3.447l-3.804,0.553l2.753,2.683l-0.65,3.789l3.403-1.789
		l3.403,1.789l-0.65-3.789C49.772,39.208,52.525,36.525,52.525,36.525z"/>
	<path fill="#787878" d="M64.587,36.573l-3.804-0.553l-1.701-3.447L57.38,36.02l-3.804,0.553l2.753,2.683l-0.65,3.789l3.403-1.789
		l3.403,1.789l-0.65-3.789C61.834,39.257,64.587,36.573,64.587,36.573z M59.081,40.406l-2.403,1.263l0.459-2.676l-1.944-1.895
		l2.687-0.39l1.202-2.435l1.202,2.435l2.686,0.39l-1.944,1.895l0.459,2.676L59.081,40.406L59.081,40.406z"/>
	<path fill="#FBC112" d="M29.098,36.59l-3.804-0.553l-1.701-3.447l-1.701,3.447l-3.804,0.553l2.753,2.683l-0.65,3.789l3.403-1.789
		l3.403,1.789l-0.65-3.789C26.345,39.273,29.098,36.59,29.098,36.59z"/>
</g>
    
</svg>
